<svg width="51" height="50" viewBox="0 0 51 50" fill="none" xmlns="http://www.w3.org/2000/svg">
<path d="M0.480469 0H40.4805C46.0033 0 50.4805 4.47715 50.4805 10V40C50.4805 45.5228 46.0033 50 40.4805 50H0.480469V0Z" fill="#4BAF47"/>
<g clip-path="url(#clip0_4140_906)">
<path d="M30.3011 18.7891C30.3715 18.8361 30.4223 18.8966 30.4536 18.9709C30.4848 19.0452 30.4927 19.1253 30.477 19.2113L28.7649 29.5075C28.7571 29.57 28.7336 29.6267 28.6945 29.6775C28.6554 29.7283 28.6085 29.7733 28.5538 29.8124C28.5225 29.828 28.4893 29.8397 28.4541 29.8475C28.419 29.8554 28.3818 29.8593 28.3427 29.8593C28.3193 29.8593 28.2939 29.8573 28.2665 29.8534C28.2391 29.8495 28.2098 29.8397 28.1786 29.8241L25.153 28.5928L23.523 30.5629C23.4839 30.6176 23.4351 30.6567 23.3764 30.6802C23.3178 30.7036 23.2572 30.7153 23.1947 30.7153C23.1712 30.7153 23.1477 30.7134 23.1243 30.7095C23.1008 30.7056 23.0774 30.6997 23.0539 30.6919C22.9679 30.6606 22.8995 30.6078 22.8487 30.5336C22.7979 30.4593 22.7725 30.3792 22.7725 30.2932V27.9478L28.5538 20.8531L21.4004 27.0566L18.7502 25.966C18.672 25.9347 18.6095 25.8858 18.5626 25.8194C18.5156 25.7529 18.4883 25.6806 18.4805 25.6024C18.4805 25.5164 18.4981 25.4383 18.5332 25.3679C18.5684 25.2975 18.6212 25.2428 18.6916 25.2037L29.8438 18.7657C29.875 18.7501 29.9102 18.7364 29.9493 18.7246C29.9884 18.7129 30.0236 18.7071 30.0548 18.7071C30.1018 18.7071 30.1467 18.7149 30.1897 18.7305C30.2327 18.7461 30.2698 18.7657 30.3011 18.7891Z" fill="white"/>
</g>
<defs>
<clipPath id="clip0_4140_906">
<rect width="12.02" height="13" fill="white" transform="matrix(1 0 0 -1 18.4805 31)"/>
</clipPath>
</defs>
</svg>
