<svg width="51" height="51" viewBox="0 0 51 51" fill="none" xmlns="http://www.w3.org/2000/svg">
<rect x="0.5" y="0.0900879" width="50" height="50" rx="25" fill="#4BAF47"/>
<g clip-path="url(#clip0_4133_2498)">
<path d="M39.5694 33.1526C40.2323 33.1526 40.7957 33.1617 41.2598 33.1799C41.7238 33.1982 41.9558 33.2203 41.9558 33.2463V33.7151C41.9558 33.7581 41.7487 33.7987 41.3344 33.8372C40.92 33.8749 40.3524 33.908 39.6315 33.9363C38.9106 33.9646 38.0695 33.9869 37.1083 34.0032C36.1305 34.0194 35.0947 34.0276 34.0009 34.0276H33.6031C33.2717 34.0276 32.99 34.023 32.7579 34.0139C32.5259 34.0048 32.4099 33.9937 32.4099 33.9807V33.887C32.4099 33.8739 32.5259 33.8629 32.7579 33.8538C32.99 33.8446 33.2717 33.8401 33.6031 33.8401H34.0009C34.8793 33.8401 35.6292 33.8279 36.2507 33.8035C36.8721 33.7791 37.1829 33.7496 37.1829 33.7151V33.5901H33.2054C32.5425 33.5901 31.979 33.581 31.515 33.5627C31.0509 33.5445 30.8189 33.5224 30.8189 33.4963V33.2463C30.8189 33.2203 31.0509 33.1982 31.515 33.1799C31.979 33.1617 32.5425 33.1526 33.2054 33.1526H39.5694ZM25.2504 33.1526C25.9134 33.1526 26.4768 33.1617 26.9409 33.1799C27.4049 33.1982 27.6369 33.2203 27.6369 33.2463V33.7151C27.6369 33.7581 27.4298 33.7987 27.0155 33.8372C26.6011 33.8749 26.0335 33.908 25.3126 33.9363C24.5917 33.9646 23.7506 33.9869 22.7894 34.0032C21.8116 34.0194 20.7758 34.0276 19.682 34.0276H19.2842C18.9528 34.0276 18.671 34.023 18.439 34.0139C18.207 34.0048 18.091 33.9937 18.091 33.9807V33.887C18.091 33.8739 18.207 33.8629 18.439 33.8538C18.671 33.8446 18.9528 33.8401 19.2842 33.8401H19.682C20.5603 33.8401 21.3103 33.8279 21.9317 33.8035C22.5532 33.7791 22.864 33.7496 22.864 33.7151V33.5901H18.8865C18.2236 33.5901 17.6601 33.581 17.1961 33.5627C16.732 33.5445 16.5 33.5224 16.5 33.4963V33.2463C16.5 33.2203 16.732 33.1982 17.1961 33.1799C17.6601 33.1617 18.2236 33.1526 18.8865 33.1526H25.2504Z" fill="white"/>
</g>
<defs>
<clipPath id="clip0_4133_2498">
<rect width="25.4558" height="1" fill="white" transform="matrix(1 0 0 -1 16.5 34.0901)"/>
</clipPath>
</defs>
</svg>
