<svg width="40" height="41" viewBox="0 0 40 41" fill="none" xmlns="http://www.w3.org/2000/svg">
<rect y="0.75" width="40" height="40" rx="20" fill="#F8F7F0"/>
<g clip-path="url(#clip0_4137_1893)">
<path d="M26.5 21.6592V26.458H23.7197V21.9766C23.7197 21.4095 23.6097 20.9525 23.3896 20.6055C23.1696 20.2585 22.8057 20.085 22.2979 20.085C21.917 20.085 21.6102 20.1908 21.3774 20.4023C21.1447 20.6139 20.9775 20.8467 20.876 21.1006C20.8337 21.1937 20.8062 21.2995 20.7935 21.418C20.7808 21.5365 20.7744 21.6592 20.7744 21.7861V26.458H17.9941C17.9941 26.458 17.9941 26.0602 17.9941 25.2646C18.0026 24.4606 18.0068 23.5592 18.0068 22.5605C18.0068 21.5618 18.0068 20.6139 18.0068 19.7168C18.0068 18.8197 18.0026 18.2738 17.9941 18.0791H20.7744V19.2725C20.7744 19.2725 20.7723 19.2746 20.7681 19.2788C20.7638 19.283 20.7617 19.2894 20.7617 19.2979H20.7744V19.2725C20.9606 18.9847 21.242 18.6821 21.6187 18.3647C21.9953 18.0474 22.5518 17.8887 23.2881 17.8887C23.7451 17.8887 24.1725 17.9606 24.5703 18.1045C24.9596 18.2568 25.2982 18.4896 25.5859 18.8027C25.8737 19.1159 26.098 19.5094 26.2588 19.9834C26.4196 20.4574 26.5 21.016 26.5 21.6592ZM15.0742 14.042C14.6003 14.042 14.2194 14.1795 13.9316 14.4546C13.6439 14.7297 13.5 15.0745 13.5 15.4893C13.5 15.887 13.6396 16.2277 13.9189 16.5112C14.1982 16.7948 14.5706 16.9365 15.0361 16.9365H15.0615C15.5439 16.9365 15.9269 16.7948 16.2104 16.5112C16.494 16.2277 16.6357 15.887 16.6357 15.4893C16.6273 15.0745 16.4855 14.7297 16.2104 14.4546C15.9354 14.1795 15.5566 14.042 15.0742 14.042ZM13.665 26.458H16.458V18.0791H13.665V26.458Z" fill="#1F1E17"/>
</g>
<defs>
<clipPath id="clip0_4137_1893">
<rect width="13" height="13" fill="white" transform="matrix(1 0 0 -1 13.5 26.75)"/>
</clipPath>
</defs>
</svg>
