<svg width="40" height="41" viewBox="0 0 40 41" fill="none" xmlns="http://www.w3.org/2000/svg">
<rect y="0.75" width="40" height="40" rx="20" fill="#F8F7F0"/>
<g clip-path="url(#clip0_4137_1890)">
<path d="M22.3867 15.083C21.9382 14.6514 21.4134 14.3213 20.8125 14.0928C20.2116 13.8643 19.5726 13.75 18.8955 13.75C18.3792 13.75 17.9137 13.7965 17.499 13.8896C17.0758 13.9912 16.6992 14.116 16.3691 14.2642C16.0391 14.4123 15.7471 14.5794 15.4932 14.7656C15.2477 14.9518 15.0361 15.1338 14.8584 15.3115C14.4268 15.7516 14.0924 16.2489 13.8555 16.8032C13.6185 17.3576 13.5 17.9225 13.5 18.498C13.5 19.2259 13.6418 19.8522 13.9253 20.377C14.2088 20.9017 14.6045 21.2656 15.1123 21.4688C15.1462 21.4857 15.18 21.4984 15.2139 21.5068C15.2477 21.5153 15.2816 21.5195 15.3154 21.5195C15.4255 21.5195 15.5186 21.4857 15.5947 21.418C15.6709 21.3503 15.7259 21.2614 15.7598 21.1514C15.7767 21.0837 15.8021 20.9863 15.8359 20.8594C15.8698 20.7324 15.8952 20.6351 15.9121 20.5674C15.946 20.432 15.9502 20.3219 15.9248 20.2373C15.8994 20.1527 15.8444 20.0638 15.7598 19.9707C15.6159 19.8014 15.508 19.611 15.436 19.3994C15.3641 19.1878 15.3281 18.9466 15.3281 18.6758C15.3281 18.2865 15.4001 17.8971 15.5439 17.5078C15.6963 17.11 15.9142 16.7567 16.1978 16.4478C16.4813 16.1388 16.8304 15.8913 17.2451 15.7051C17.6683 15.5104 18.1549 15.4131 18.7051 15.4131C19.1367 15.4131 19.526 15.4723 19.873 15.5908C20.2201 15.7093 20.5142 15.8807 20.7554 16.105C20.9966 16.3293 21.1849 16.598 21.3203 16.9111C21.4473 17.2327 21.5107 17.5924 21.5107 17.9902C21.5107 18.4896 21.46 18.9635 21.3584 19.4121C21.2568 19.8607 21.1045 20.2585 20.9014 20.6055C20.766 20.8424 20.5776 21.0752 20.3364 21.3037C20.0952 21.5322 19.7884 21.6465 19.416 21.6465C19.2552 21.6465 19.1071 21.6147 18.9717 21.5513C18.8363 21.4878 18.722 21.3968 18.6289 21.2783C18.5443 21.1768 18.4893 21.0583 18.4639 20.9229C18.4385 20.7874 18.4427 20.6478 18.4766 20.5039C18.5189 20.3346 18.5633 20.1654 18.6099 19.9961C18.6564 19.8268 18.7051 19.6618 18.7559 19.501C18.849 19.1963 18.9336 18.9043 19.0098 18.625C19.0859 18.3457 19.124 18.096 19.124 17.876C19.124 17.4867 19.014 17.1714 18.7939 16.9302C18.5739 16.689 18.2861 16.5684 17.9307 16.5684C17.4821 16.5684 17.1012 16.7715 16.7881 17.1777C16.4749 17.584 16.3184 18.0791 16.3184 18.6631C16.3184 18.9508 16.348 19.1963 16.4072 19.3994C16.4665 19.6025 16.513 19.7464 16.5469 19.8311C16.513 19.9495 16.4538 20.195 16.3691 20.5674C16.2845 20.9398 16.1914 21.3376 16.0898 21.7607C15.9883 22.1839 15.8952 22.5817 15.8105 22.9541C15.7174 23.335 15.654 23.5931 15.6201 23.7285C15.6032 23.8047 15.5693 23.9951 15.5186 24.2998C15.4762 24.6045 15.4466 24.9282 15.4297 25.271C15.4128 25.6138 15.4297 25.9333 15.4805 26.2295C15.5397 26.5173 15.6624 26.6865 15.8486 26.7373C16.0518 26.7881 16.2507 26.7035 16.4453 26.4834C16.6315 26.2549 16.8008 25.9883 16.9531 25.6836C17.1055 25.3789 17.2282 25.0827 17.3213 24.7949C17.4144 24.5072 17.4736 24.3252 17.499 24.249C17.5244 24.139 17.5815 23.9126 17.6704 23.5698C17.7593 23.2271 17.8376 22.9245 17.9053 22.6621C18.0999 22.8568 18.3496 23.0155 18.6543 23.1382C18.959 23.2609 19.2679 23.3223 19.5811 23.3223C20.1735 23.3223 20.7279 23.1911 21.2441 22.9287C21.7604 22.6663 22.2048 22.2939 22.5771 21.8115C22.9411 21.346 23.2204 20.7959 23.415 20.1611C23.6097 19.5264 23.707 18.8493 23.707 18.1299C23.707 17.5628 23.5928 17.0148 23.3643 16.4858C23.1357 15.9569 22.8099 15.4893 22.3867 15.083Z" fill="#1F1E17"/>
</g>
<defs>
<clipPath id="clip0_4137_1890">
<rect width="13" height="13" fill="white" transform="matrix(1 0 0 -1 13.5 26.75)"/>
</clipPath>
</defs>
</svg>
