<svg width="40" height="41" viewBox="0 0 40 41" fill="none" xmlns="http://www.w3.org/2000/svg">
<rect y="0.75" width="40" height="40" rx="20" fill="#F8F7F0"/>
<g clip-path="url(#clip0_4137_1884)">
<path d="M29.0522 15.2861C28.7729 15.4131 28.4767 15.521 28.1636 15.6099C27.8504 15.6987 27.5288 15.7643 27.1987 15.8066H27.1606C27.4992 15.6035 27.7933 15.3475 28.043 15.0386C28.2926 14.7297 28.4767 14.389 28.5952 14.0166L28.6079 13.9912C28.3032 14.1689 27.9795 14.3255 27.6367 14.4609C27.2939 14.5964 26.9364 14.7021 26.564 14.7783L26.5132 14.791C26.217 14.4694 25.8636 14.2155 25.4531 14.0293C25.0426 13.8431 24.6004 13.75 24.1265 13.75C23.6694 13.75 23.242 13.8346 22.8442 14.0039C22.4465 14.1816 22.0994 14.4186 21.8032 14.7148C21.507 15.0111 21.27 15.3581 21.0923 15.7559C20.923 16.1536 20.8384 16.5811 20.8384 17.0381C20.8384 17.1735 20.8468 17.3047 20.8638 17.4316C20.8807 17.5586 20.9019 17.6813 20.9272 17.7998V17.7744C20.2417 17.7406 19.5815 17.639 18.9468 17.4697C18.3035 17.292 17.6963 17.055 17.125 16.7588C16.5537 16.4626 16.0184 16.1156 15.519 15.7178C15.0282 15.3115 14.5796 14.863 14.1733 14.3721L14.1606 14.3467C14.0168 14.5837 13.9067 14.8418 13.8306 15.1211C13.7544 15.4004 13.7163 15.6924 13.7163 15.9971C13.7163 16.5641 13.8475 17.0868 14.1099 17.5649C14.3722 18.0431 14.7235 18.4303 15.1636 18.7266H15.1763C14.897 18.7181 14.6325 18.6779 14.3828 18.606C14.1331 18.534 13.894 18.4346 13.6655 18.3076L13.6909 18.3203V18.3584C13.6909 18.7562 13.7544 19.1328 13.8813 19.4883C14.0168 19.8438 14.2008 20.1632 14.4336 20.4468C14.6663 20.7303 14.9435 20.9694 15.2651 21.1641C15.5783 21.3587 15.9211 21.4984 16.2935 21.583H16.3188C16.1919 21.6169 16.0544 21.6444 15.9062 21.6655C15.7581 21.6867 15.6079 21.6973 15.4556 21.6973C15.3455 21.6973 15.2376 21.6909 15.1318 21.6782C15.026 21.6655 14.9224 21.6507 14.8208 21.6338H14.8335C14.9435 21.9639 15.1001 22.2686 15.3032 22.5479C15.4979 22.8187 15.7285 23.0557 15.9951 23.2588C16.2617 23.4619 16.5558 23.6185 16.8774 23.7285C17.1991 23.847 17.5418 23.9105 17.9058 23.9189C17.6265 24.139 17.3302 24.3337 17.0171 24.5029C16.7039 24.6722 16.376 24.8182 16.0332 24.9409C15.6904 25.0636 15.3371 25.1589 14.9731 25.2266C14.6007 25.2858 14.2241 25.3154 13.8433 25.3154C13.8348 25.3154 13.8306 25.3154 13.8306 25.3154C13.6867 25.3154 13.547 25.3112 13.4116 25.3027C13.2762 25.2943 13.1408 25.2816 13.0054 25.2646L13.0435 25.2773C13.3989 25.5059 13.7713 25.7132 14.1606 25.8994C14.5584 26.0771 14.9689 26.2295 15.3921 26.3564C15.8153 26.4834 16.2511 26.5807 16.6997 26.6484C17.1483 26.7161 17.6053 26.75 18.0708 26.75C19.5858 26.75 20.923 26.4665 22.0825 25.8994C23.242 25.3324 24.2174 24.6003 25.0088 23.7031C25.8001 22.806 26.3989 21.8031 26.8052 20.6943C27.2114 19.5856 27.4146 18.4896 27.4146 17.4062L27.4019 16.9873C27.7319 16.7503 28.0324 16.4922 28.3032 16.2129C28.5741 15.9336 28.8153 15.6331 29.0269 15.3115L29.0522 15.2861Z" fill="#1F1E17"/>
</g>
<defs>
<clipPath id="clip0_4137_1884">
<rect width="16.02" height="13" fill="white" transform="matrix(1 0 0 -1 13 26.75)"/>
</clipPath>
</defs>
</svg>
