<svg width="15" height="21" viewBox="0 0 15 21" fill="none" xmlns="http://www.w3.org/2000/svg">
<g clip-path="url(#clip0_4137_1868)">
<path d="M10.5992 9.12445C10.5992 9.68324 10.4595 10.2124 10.1801 10.7119C9.90914 11.203 9.5345 11.6326 9.05614 12.0009C8.57779 12.3692 8.01689 12.6592 7.37344 12.8709C6.72999 13.0825 6.04421 13.1883 5.3161 13.1883C4.79964 13.1883 4.30224 13.1333 3.82389 13.0232C3.34553 12.9132 2.89893 12.7566 2.48407 12.5534C2.21315 12.7142 1.88719 12.8603 1.5062 12.9915C1.12521 13.1227 0.70189 13.1883 0.236236 13.1883C0.193904 13.1883 0.155805 13.1778 0.121939 13.1566C0.0880736 13.1354 0.0626743 13.1037 0.0457415 13.0613C0.0288086 13.0275 0.0245754 12.9894 0.0330418 12.947C0.0415082 12.9047 0.0584411 12.8709 0.0838404 12.8455C0.0923069 12.8455 0.204487 12.71 0.420381 12.4391C0.636275 12.1681 0.828887 11.8422 0.998215 11.4612C0.693424 11.131 0.456364 10.7669 0.287035 10.369C0.117706 9.9711 0.0330418 9.55624 0.0330418 9.12445C0.0330418 8.56567 0.172738 8.03652 0.45213 7.537C0.723056 7.04594 1.0977 6.61627 1.57605 6.24798C2.0544 5.87969 2.6153 5.58972 3.25875 5.37805C3.9022 5.16639 4.58798 5.06056 5.3161 5.06056C6.04421 5.06056 6.72999 5.16639 7.37344 5.37805C8.01689 5.58972 8.57779 5.87969 9.05614 6.24798C9.5345 6.61627 9.90914 7.04594 10.1801 7.537C10.4595 8.03652 10.5992 8.56567 10.5992 9.12445ZM13.6979 14.7123C13.8672 15.0933 14.0598 15.4192 14.2757 15.6902C14.4916 15.9611 14.6038 16.0966 14.6122 16.0966C14.6376 16.1304 14.6546 16.1664 14.663 16.2045C14.6715 16.2426 14.6673 16.2786 14.6503 16.3125C14.6334 16.3548 14.608 16.3865 14.5741 16.4077C14.5403 16.4289 14.5022 16.4395 14.4598 16.4395C13.9942 16.4395 13.5709 16.3738 13.1899 16.2426C12.8089 16.1114 12.4829 15.9653 12.212 15.8045C11.7972 16.0077 11.3527 16.1643 10.8785 16.2744C10.4044 16.3844 9.9049 16.4395 9.37999 16.4395C8.82967 16.4395 8.30475 16.3802 7.80523 16.2617C7.30571 16.1347 6.84429 15.9611 6.42097 15.741C5.99765 15.5208 5.62512 15.2584 5.3034 14.9536C4.97321 14.6488 4.71075 14.3144 4.51602 13.9503C4.64302 13.9673 4.77425 13.98 4.90971 13.9884C5.04517 13.9969 5.18063 14.0011 5.3161 14.0011C6.15427 14.0011 6.94589 13.8741 7.69093 13.6201C8.42751 13.3661 9.07096 13.0169 9.62128 12.5724C10.1716 12.1279 10.6076 11.6094 10.9293 11.0167C11.2511 10.4241 11.4119 9.7933 11.4119 9.12445C11.4119 9.03979 11.4098 8.95512 11.4056 8.87046C11.4013 8.7858 11.3908 8.70113 11.3738 8.61647C11.8564 8.76886 12.3009 8.96782 12.7073 9.21335C13.1052 9.46734 13.4502 9.75732 13.7423 10.0833C14.0344 10.4092 14.2609 10.7669 14.4217 11.1564C14.5826 11.5459 14.663 11.9522 14.663 12.3756C14.663 12.8074 14.5784 13.2222 14.409 13.6201C14.2397 14.0181 14.0027 14.3821 13.6979 14.7123Z" fill="#EEC044"/>
</g>
<defs>
<clipPath id="clip0_4137_1868">
<rect width="14.63" height="20" fill="white" transform="matrix(1 0 0 -1 0.0297852 20.75)"/>
</clipPath>
</defs>
</svg>
