<svg width="51" height="51" viewBox="0 0 51 51" fill="none" xmlns="http://www.w3.org/2000/svg">
<rect x="0.980469" y="0.970215" width="50" height="50" rx="10" fill="#4BAF47"/>
<path d="M38.4805 30.4136C40.9544 30.4136 43.0622 31.2843 44.8037 33.0259C46.5452 34.7674 47.416 36.8752 47.416 39.3491C47.416 41.8231 46.5452 43.9308 44.8037 45.6724C43.0622 47.4139 40.9544 48.2847 38.4805 48.2847C36.0065 48.2847 33.8988 47.4139 32.1572 45.6724C30.4157 43.9308 29.5449 41.8231 29.5449 39.3491C29.5449 39.2189 29.5531 39.0724 29.5693 38.9097C29.5856 38.7469 29.5938 38.5841 29.5938 38.4214L19.5352 33.3921C18.7539 34.1408 17.8424 34.7267 16.8008 35.1499C15.7591 35.5731 14.6523 35.7847 13.4805 35.7847C11.0065 35.7847 8.89876 34.9139 7.15723 33.1724C5.41569 31.4308 4.54492 29.3231 4.54492 26.8491C4.54492 24.3752 5.41569 22.2674 7.15723 20.5259C8.89876 18.7843 11.0065 17.9136 13.4805 17.9136C14.6523 17.9136 15.7591 18.1333 16.8008 18.5728C17.8424 19.0122 18.7539 19.6063 19.5352 20.355L29.5938 15.3257C29.5938 15.1629 29.5856 15.0002 29.5693 14.8374C29.5531 14.6746 29.5449 14.5119 29.5449 14.3491C29.5449 11.8752 30.4157 9.76741 32.1572 8.02588C33.8988 6.28434 36.0065 5.41357 38.4805 5.41357C40.9544 5.41357 43.0622 6.28434 44.8037 8.02588C46.5452 9.76741 47.416 11.8752 47.416 14.3491C47.416 16.8231 46.5452 18.9308 44.8037 20.6724C43.0622 22.4139 40.9544 23.2847 38.4805 23.2847C37.3086 23.2847 36.2018 23.0731 35.1602 22.6499C34.1185 22.2267 33.1908 21.6408 32.377 20.8921L22.3672 25.9214C22.3672 26.0841 22.3753 26.2469 22.3916 26.4097C22.4079 26.5724 22.416 26.7189 22.416 26.8491C22.416 27.0119 22.4079 27.1746 22.3916 27.3374C22.3753 27.5002 22.3672 27.6629 22.3672 27.8257L32.377 32.855C33.1908 32.1063 34.1185 31.5122 35.1602 31.0728C36.2018 30.6333 37.3086 30.4136 38.4805 30.4136Z" fill="white"/>
</svg>
